<svg xmlns="http://www.w3.org/2000/svg" xmlns:xlink="http://www.w3.org/1999/xlink" contentStyleType="text/css" data-diagram-type="DESCRIPTION" height="347.9167px" preserveAspectRatio="none" style="width:3997px;height:347px;" version="1.1" viewBox="0 0 3997 347" width="3997.9167px" zoomAndPan="magnify"><?plantuml 1.2026.3?><defs><linearGradient id="g19lbwlnw0ubgv0" x1="50%" x2="50%" y1="0%" y2="100%"><stop offset="0%" stop-color="#EDF0F2"/><stop offset="100%" stop-color="#E9ECEF"/></linearGradient><linearGradient id="g19lbwlnw0ubgv1" x1="50%" x2="50%" y1="0%" y2="100%"><stop offset="0%" stop-color="#59B6EC"/><stop offset="100%" stop-color="#2FA4E7"/></linearGradient></defs><g><g class="title" data-source-line="2"><rect fill="url(#g19lbwlnw0ubgv0)" height="40.875" rx="4.1667" ry="4.1667" style="stroke:#BABDBF;stroke-width:1.0417;" width="412.1454" x="1792.1026" y="20.8333"/><text fill="#2FA4E7" font-family="'Verdana'" font-size="20.8333" font-weight="700" lengthAdjust="spacing" textLength="399.6454" x="1798.3526" y="49.3541">Plant Tracking System - UI Screen Map</text></g><!--entity root--><g class="entity" data-qualified-name="root" data-source-line="10" id="ent0002"><rect fill="#F0F7FF" height="37.8585" rx="4.1667" ry="4.1667" style="stroke:#3B82F6;stroke-width:2.0833;" width="104.5589" x="2118.2292" y="80.4583"/><text fill="#2FA4E7" font-family="'Verdana'" font-size="12.5" lengthAdjust="spacing" textLength="83.7256" x="2128.6458" y="104.2376">Plant Tracking</text></g><!--entity dash--><g class="entity" data-qualified-name="dash" data-source-line="11" id="ent0003"><rect fill="#F0F7FF" height="37.8585" rx="4.1667" ry="4.1667" style="stroke:#3B82F6;stroke-width:2.0833;" width="85.7963" x="236.9792" y="180.4583"/><text fill="#2FA4E7" font-family="'Verdana'" font-size="12.5" lengthAdjust="spacing" textLength="64.9629" x="247.3958" y="204.2376">Dashboard</text></g><!--entity detail--><g class="entity" data-qualified-name="detail" data-source-line="12" id="ent0004"><rect fill="#F0F7FF" height="37.8585" rx="4.1667" ry="4.1667" style="stroke:#3B82F6;stroke-width:2.0833;" width="88.2713" x="811.4583" y="180.4583"/><text fill="#2FA4E7" font-family="'Verdana'" font-size="12.5" lengthAdjust="spacing" textLength="67.438" x="821.875" y="204.2376">Plant Detail</text></g><!--entity create--><g class="entity" data-qualified-name="create" data-source-line="13" id="ent0005"><rect fill="#F0F7FF" height="37.8585" rx="4.1667" ry="4.1667" style="stroke:#3B82F6;stroke-width:2.0833;" width="92.8089" x="1386.4583" y="180.4583"/><text fill="#2FA4E7" font-family="'Verdana'" font-size="12.5" lengthAdjust="spacing" textLength="71.9755" x="1396.875" y="204.2376">Create Plant</text></g><!--entity label--><g class="entity" data-qualified-name="label" data-source-line="14" id="ent0006"><rect fill="#F0F7FF" height="37.8585" rx="4.1667" ry="4.1667" style="stroke:#3B82F6;stroke-width:2.0833;" width="93.1838" x="1890.625" y="180.4583"/><text fill="#2FA4E7" font-family="'Verdana'" font-size="12.5" lengthAdjust="spacing" textLength="72.3505" x="1901.0417" y="204.2376">Label Studio</text></g><!--entity logger--><g class="entity" data-qualified-name="logger" data-source-line="15" id="ent0007"><rect fill="#F0F7FF" height="37.8585" rx="4.1667" ry="4.1667" style="stroke:#3B82F6;stroke-width:2.0833;" width="107.9715" x="2271.3542" y="180.4583"/><text fill="#2FA4E7" font-family="'Verdana'" font-size="12.5" lengthAdjust="spacing" textLength="87.1381" x="2281.7708" y="204.2376">Activity Logger</text></g><!--entity compare--><g class="entity" data-qualified-name="compare" data-source-line="16" id="ent0008"><rect fill="#F0F7FF" height="37.8585" rx="4.1667" ry="4.1667" style="stroke:#3B82F6;stroke-width:2.0833;" width="105.7465" x="2801.5625" y="180.4583"/><text fill="#2FA4E7" font-family="'Verdana'" font-size="12.5" lengthAdjust="spacing" textLength="84.9131" x="2811.9792" y="204.2376">Compare View</text></g><!--entity scan--><g class="entity" data-qualified-name="scan" data-source-line="17" id="ent0009"><rect fill="#F0F7FF" height="37.8585" rx="4.1667" ry="4.1667" style="stroke:#3B82F6;stroke-width:2.0833;" width="91.5338" x="3196.3542" y="180.4583"/><text fill="#2FA4E7" font-family="'Verdana'" font-size="12.5" lengthAdjust="spacing" textLength="70.7005" x="3206.7708" y="204.2376">Scan Screen</text></g><!--entity settings--><g class="entity" data-qualified-name="settings" data-source-line="18" id="ent0010"><rect fill="#F0F7FF" height="37.8585" rx="4.1667" ry="4.1667" style="stroke:#3B82F6;stroke-width:2.0833;" width="68.3962" x="3618.2292" y="180.4583"/><text fill="#2FA4E7" font-family="'Verdana'" font-size="12.5" lengthAdjust="spacing" textLength="47.5628" x="3628.6458" y="204.2376">Settings</text></g><!--entity Plant List--><g class="entity" data-qualified-name="Plant List" data-source-line="29" id="ent0019"><rect fill="url(#g19lbwlnw0ubgv1)" height="48.2751" rx="4.1667" ry="4.1667" style="stroke:#2FA4E7;stroke-width:1.0417;" width="95.2295" x="17.7083" y="280.4583"/><rect fill="url(#g19lbwlnw0ubgv1)" height="10.4167" style="stroke:#2FA4E7;stroke-width:1.0417;" width="15.625" x="92.1045" y="285.6666"/><rect fill="url(#g19lbwlnw0ubgv1)" height="2.0833" style="stroke:#2FA4E7;stroke-width:1.0417;" width="4.1667" x="90.0212" y="287.75"/><rect fill="url(#g19lbwlnw0ubgv1)" height="2.0833" style="stroke:#2FA4E7;stroke-width:1.0417;" width="4.1667" x="90.0212" y="291.9166"/><text fill="#FFFFFF" font-family="'Verdana'" font-size="12.5" lengthAdjust="spacing" textLength="53.5629" x="33.3333" y="314.6542">Plant List</text></g><!--entity Quick Stats--><g class="entity" data-qualified-name="Quick Stats" data-source-line="30" id="ent0021"><rect fill="url(#g19lbwlnw0ubgv1)" height="48.2751" rx="4.1667" ry="4.1667" style="stroke:#2FA4E7;stroke-width:1.0417;" width="107.1921" x="148.9583" y="280.4583"/><rect fill="url(#g19lbwlnw0ubgv1)" height="10.4167" style="stroke:#2FA4E7;stroke-width:1.0417;" width="15.625" x="235.3171" y="285.6666"/><rect fill="url(#g19lbwlnw0ubgv1)" height="2.0833" style="stroke:#2FA4E7;stroke-width:1.0417;" width="4.1667" x="233.2338" y="287.75"/><rect fill="url(#g19lbwlnw0ubgv1)" height="2.0833" style="stroke:#2FA4E7;stroke-width:1.0417;" width="4.1667" x="233.2338" y="291.9166"/><text fill="#FFFFFF" font-family="'Verdana'" font-size="12.5" lengthAdjust="spacing" textLength="65.5255" x="164.5833" y="314.6542">Quick Stats</text></g><!--entity Search / Filters--><g class="entity" data-qualified-name="Search . Filters" data-source-line="31" id="ent0023"><rect fill="url(#g19lbwlnw0ubgv1)" height="48.2751" rx="4.1667" ry="4.1667" style="stroke:#2FA4E7;stroke-width:1.0417;" width="128.2798" x="292.7083" y="280.4583"/><rect fill="url(#g19lbwlnw0ubgv1)" height="10.4167" style="stroke:#2FA4E7;stroke-width:1.0417;" width="15.625" x="400.1548" y="285.6666"/><rect fill="url(#g19lbwlnw0ubgv1)" height="2.0833" style="stroke:#2FA4E7;stroke-width:1.0417;" width="4.1667" x="398.0715" y="287.75"/><rect fill="url(#g19lbwlnw0ubgv1)" height="2.0833" style="stroke:#2FA4E7;stroke-width:1.0417;" width="4.1667" x="398.0715" y="291.9166"/><text fill="#FFFFFF" font-family="'Verdana'" font-size="12.5" lengthAdjust="spacing" textLength="86.6131" x="308.3333" y="314.6542">Search / Filters</text></g><!--entity Overview Header--><g class="entity" data-qualified-name="Overview Header" data-source-line="33" id="ent0025"><rect fill="url(#g19lbwlnw0ubgv1)" height="48.2751" rx="4.1667" ry="4.1667" style="stroke:#2FA4E7;stroke-width:1.0417;" width="142.9174" x="457.2917" y="280.4583"/><rect fill="url(#g19lbwlnw0ubgv1)" height="10.4167" style="stroke:#2FA4E7;stroke-width:1.0417;" width="15.625" x="579.3757" y="285.6666"/><rect fill="url(#g19lbwlnw0ubgv1)" height="2.0833" style="stroke:#2FA4E7;stroke-width:1.0417;" width="4.1667" x="577.2924" y="287.75"/><rect fill="url(#g19lbwlnw0ubgv1)" height="2.0833" style="stroke:#2FA4E7;stroke-width:1.0417;" width="4.1667" x="577.2924" y="291.9166"/><text fill="#FFFFFF" font-family="'Verdana'" font-size="12.5" lengthAdjust="spacing" textLength="101.2507" x="472.9167" y="314.6542">Overview Header</text></g><!--entity Care Timeline--><g class="entity" data-qualified-name="Care Timeline" data-source-line="34" id="ent0027"><rect fill="url(#g19lbwlnw0ubgv1)" height="48.2751" rx="4.1667" ry="4.1667" style="stroke:#2FA4E7;stroke-width:1.0417;" width="122.1797" x="636.4583" y="280.4583"/><rect fill="url(#g19lbwlnw0ubgv1)" height="10.4167" style="stroke:#2FA4E7;stroke-width:1.0417;" width="15.625" x="737.8047" y="285.6666"/><rect fill="url(#g19lbwlnw0ubgv1)" height="2.0833" style="stroke:#2FA4E7;stroke-width:1.0417;" width="4.1667" x="735.7214" y="287.75"/><rect fill="url(#g19lbwlnw0ubgv1)" height="2.0833" style="stroke:#2FA4E7;stroke-width:1.0417;" width="4.1667" x="735.7214" y="291.9166"/><text fill="#FFFFFF" font-family="'Verdana'" font-size="12.5" lengthAdjust="spacing" textLength="80.5131" x="652.0833" y="314.6542">Care Timeline</text></g><!--entity Photo Gallery--><g class="entity" data-qualified-name="Photo Gallery" data-source-line="35" id="ent0029"><rect fill="url(#g19lbwlnw0ubgv1)" height="48.2751" rx="4.1667" ry="4.1667" style="stroke:#2FA4E7;stroke-width:1.0417;" width="120.9922" x="795.3125" y="280.4583"/><rect fill="url(#g19lbwlnw0ubgv1)" height="10.4167" style="stroke:#2FA4E7;stroke-width:1.0417;" width="15.625" x="895.4714" y="285.6666"/><rect fill="url(#g19lbwlnw0ubgv1)" height="2.0833" style="stroke:#2FA4E7;stroke-width:1.0417;" width="4.1667" x="893.3881" y="287.75"/><rect fill="url(#g19lbwlnw0ubgv1)" height="2.0833" style="stroke:#2FA4E7;stroke-width:1.0417;" width="4.1667" x="893.3881" y="291.9166"/><text fill="#FFFFFF" font-family="'Verdana'" font-size="12.5" lengthAdjust="spacing" textLength="79.3256" x="810.9375" y="314.6542">Photo Gallery</text></g><!--entity Quick Actions--><g class="entity" data-qualified-name="Quick Actions" data-source-line="36" id="ent0031"><rect fill="url(#g19lbwlnw0ubgv1)" height="48.2751" rx="4.1667" ry="4.1667" style="stroke:#2FA4E7;stroke-width:1.0417;" width="121.3048" x="952.6042" y="280.4583"/><rect fill="url(#g19lbwlnw0ubgv1)" height="10.4167" style="stroke:#2FA4E7;stroke-width:1.0417;" width="15.625" x="1053.0756" y="285.6666"/><rect fill="url(#g19lbwlnw0ubgv1)" height="2.0833" style="stroke:#2FA4E7;stroke-width:1.0417;" width="4.1667" x="1050.9923" y="287.75"/><rect fill="url(#g19lbwlnw0ubgv1)" height="2.0833" style="stroke:#2FA4E7;stroke-width:1.0417;" width="4.1667" x="1050.9923" y="291.9166"/><text fill="#FFFFFF" font-family="'Verdana'" font-size="12.5" lengthAdjust="spacing" textLength="79.6381" x="968.2292" y="314.6542">Quick Actions</text></g><!--entity Seed Packet Form--><g class="entity" data-qualified-name="Seed Packet Form" data-source-line="38" id="ent0033"><rect fill="url(#g19lbwlnw0ubgv1)" height="48.2751" rx="4.1667" ry="4.1667" style="stroke:#2FA4E7;stroke-width:1.0417;" width="146.5299" x="1110.4167" y="280.4583"/><rect fill="url(#g19lbwlnw0ubgv1)" height="10.4167" style="stroke:#2FA4E7;stroke-width:1.0417;" width="15.625" x="1236.1133" y="285.6666"/><rect fill="url(#g19lbwlnw0ubgv1)" height="2.0833" style="stroke:#2FA4E7;stroke-width:1.0417;" width="4.1667" x="1234.0299" y="287.75"/><rect fill="url(#g19lbwlnw0ubgv1)" height="2.0833" style="stroke:#2FA4E7;stroke-width:1.0417;" width="4.1667" x="1234.0299" y="291.9166"/><text fill="#FFFFFF" font-family="'Verdana'" font-size="12.5" lengthAdjust="spacing" textLength="104.8633" x="1126.0417" y="314.6542">Seed Packet Form</text></g><!--entity Auto Plant ID--><g class="entity" data-qualified-name="Auto Plant ID" data-source-line="39" id="ent0035"><rect fill="url(#g19lbwlnw0ubgv1)" height="48.2751" rx="4.1667" ry="4.1667" style="stroke:#2FA4E7;stroke-width:1.0417;" width="119.3547" x="1293.75" y="280.4583"/><rect fill="url(#g19lbwlnw0ubgv1)" height="10.4167" style="stroke:#2FA4E7;stroke-width:1.0417;" width="15.625" x="1392.2714" y="285.6666"/><rect fill="url(#g19lbwlnw0ubgv1)" height="2.0833" style="stroke:#2FA4E7;stroke-width:1.0417;" width="4.1667" x="1390.188" y="287.75"/><rect fill="url(#g19lbwlnw0ubgv1)" height="2.0833" style="stroke:#2FA4E7;stroke-width:1.0417;" width="4.1667" x="1390.188" y="291.9166"/><text fill="#FFFFFF" font-family="'Verdana'" font-size="12.5" lengthAdjust="spacing" textLength="77.688" x="1309.375" y="314.6542">Auto Plant ID</text></g><!--entity Label Preview--><g class="entity" data-qualified-name="Label Preview" data-source-line="40" id="ent0037"><rect fill="url(#g19lbwlnw0ubgv1)" height="48.2751" rx="4.1667" ry="4.1667" style="stroke:#2FA4E7;stroke-width:1.0417;" width="122.6672" x="1450.5208" y="280.4583"/><rect fill="url(#g19lbwlnw0ubgv1)" height="10.4167" style="stroke:#2FA4E7;stroke-width:1.0417;" width="15.625" x="1552.3547" y="285.6666"/><rect fill="url(#g19lbwlnw0ubgv1)" height="2.0833" style="stroke:#2FA4E7;stroke-width:1.0417;" width="4.1667" x="1550.2714" y="287.75"/><rect fill="url(#g19lbwlnw0ubgv1)" height="2.0833" style="stroke:#2FA4E7;stroke-width:1.0417;" width="4.1667" x="1550.2714" y="291.9166"/><text fill="#FFFFFF" font-family="'Verdana'" font-size="12.5" lengthAdjust="spacing" textLength="81.0006" x="1466.1458" y="314.6542">Label Preview</text></g><!--entity Template Selector--><g class="entity" data-qualified-name="Template Selector" data-source-line="42" id="ent0039"><rect fill="url(#g19lbwlnw0ubgv1)" height="48.2751" rx="4.1667" ry="4.1667" style="stroke:#2FA4E7;stroke-width:1.0417;" width="147.5174" x="1609.8958" y="280.4583"/><rect fill="url(#g19lbwlnw0ubgv1)" height="10.4167" style="stroke:#2FA4E7;stroke-width:1.0417;" width="15.625" x="1736.5799" y="285.6666"/><rect fill="url(#g19lbwlnw0ubgv1)" height="2.0833" style="stroke:#2FA4E7;stroke-width:1.0417;" width="4.1667" x="1734.4966" y="287.75"/><rect fill="url(#g19lbwlnw0ubgv1)" height="2.0833" style="stroke:#2FA4E7;stroke-width:1.0417;" width="4.1667" x="1734.4966" y="291.9166"/><text fill="#FFFFFF" font-family="'Verdana'" font-size="12.5" lengthAdjust="spacing" textLength="105.8508" x="1625.5208" y="314.6542">Template Selector</text></g><!--entity Label Designer--><g class="entity" data-qualified-name="Label Designer" data-source-line="43" id="ent0041"><rect fill="url(#g19lbwlnw0ubgv1)" height="48.2751" rx="4.1667" ry="4.1667" style="stroke:#2FA4E7;stroke-width:1.0417;" width="129.4548" x="1794.2708" y="280.4583"/><rect fill="url(#g19lbwlnw0ubgv1)" height="10.4167" style="stroke:#2FA4E7;stroke-width:1.0417;" width="15.625" x="1902.8923" y="285.6666"/><rect fill="url(#g19lbwlnw0ubgv1)" height="2.0833" style="stroke:#2FA4E7;stroke-width:1.0417;" width="4.1667" x="1900.809" y="287.75"/><rect fill="url(#g19lbwlnw0ubgv1)" height="2.0833" style="stroke:#2FA4E7;stroke-width:1.0417;" width="4.1667" x="1900.809" y="291.9166"/><text fill="#FFFFFF" font-family="'Verdana'" font-size="12.5" lengthAdjust="spacing" textLength="87.7881" x="1809.8958" y="314.6542">Label Designer</text></g><!--entity Print Queue--><g class="entity" data-qualified-name="Print Queue" data-source-line="44" id="ent0043"><rect fill="url(#g19lbwlnw0ubgv1)" height="48.2751" rx="4.1667" ry="4.1667" style="stroke:#2FA4E7;stroke-width:1.0417;" width="112.4172" x="1959.8958" y="280.4583"/><rect fill="url(#g19lbwlnw0ubgv1)" height="10.4167" style="stroke:#2FA4E7;stroke-width:1.0417;" width="15.625" x="2051.4797" y="285.6666"/><rect fill="url(#g19lbwlnw0ubgv1)" height="2.0833" style="stroke:#2FA4E7;stroke-width:1.0417;" width="4.1667" x="2049.3963" y="287.75"/><rect fill="url(#g19lbwlnw0ubgv1)" height="2.0833" style="stroke:#2FA4E7;stroke-width:1.0417;" width="4.1667" x="2049.3963" y="291.9166"/><text fill="#FFFFFF" font-family="'Verdana'" font-size="12.5" lengthAdjust="spacing" textLength="70.7505" x="1975.5208" y="314.6542">Print Queue</text></g><!--entity Watering Log--><g class="entity" data-qualified-name="Watering Log" data-source-line="46" id="ent0045"><rect fill="url(#g19lbwlnw0ubgv1)" height="48.2751" rx="4.1667" ry="4.1667" style="stroke:#2FA4E7;stroke-width:1.0417;" width="120.7172" x="2108.8542" y="280.4583"/><rect fill="url(#g19lbwlnw0ubgv1)" height="10.4167" style="stroke:#2FA4E7;stroke-width:1.0417;" width="15.625" x="2208.7381" y="285.6666"/><rect fill="url(#g19lbwlnw0ubgv1)" height="2.0833" style="stroke:#2FA4E7;stroke-width:1.0417;" width="4.1667" x="2206.6547" y="287.75"/><rect fill="url(#g19lbwlnw0ubgv1)" height="2.0833" style="stroke:#2FA4E7;stroke-width:1.0417;" width="4.1667" x="2206.6547" y="291.9166"/><text fill="#FFFFFF" font-family="'Verdana'" font-size="12.5" lengthAdjust="spacing" textLength="79.0506" x="2124.4792" y="314.6542">Watering Log</text></g><!--entity Fertilizer Log--><g class="entity" data-qualified-name="Fertilizer Log" data-source-line="47" id="ent0047"><rect fill="url(#g19lbwlnw0ubgv1)" height="48.2751" rx="4.1667" ry="4.1667" style="stroke:#2FA4E7;stroke-width:1.0417;" width="117.6922" x="2266.6667" y="280.4583"/><rect fill="url(#g19lbwlnw0ubgv1)" height="10.4167" style="stroke:#2FA4E7;stroke-width:1.0417;" width="15.625" x="2363.5256" y="285.6666"/><rect fill="url(#g19lbwlnw0ubgv1)" height="2.0833" style="stroke:#2FA4E7;stroke-width:1.0417;" width="4.1667" x="2361.4422" y="287.75"/><rect fill="url(#g19lbwlnw0ubgv1)" height="2.0833" style="stroke:#2FA4E7;stroke-width:1.0417;" width="4.1667" x="2361.4422" y="291.9166"/><text fill="#FFFFFF" font-family="'Verdana'" font-size="12.5" lengthAdjust="spacing" textLength="76.0256" x="2282.2917" y="314.6542">Fertilizer Log</text></g><!--entity Humidity Log--><g class="entity" data-qualified-name="Humidity Log" data-source-line="48" id="ent0049"><rect fill="url(#g19lbwlnw0ubgv1)" height="48.2751" rx="4.1667" ry="4.1667" style="stroke:#2FA4E7;stroke-width:1.0417;" width="120.4172" x="2421.3542" y="280.4583"/><rect fill="url(#g19lbwlnw0ubgv1)" height="10.4167" style="stroke:#2FA4E7;stroke-width:1.0417;" width="15.625" x="2520.938" y="285.6666"/><rect fill="url(#g19lbwlnw0ubgv1)" height="2.0833" style="stroke:#2FA4E7;stroke-width:1.0417;" width="4.1667" x="2518.8547" y="287.75"/><rect fill="url(#g19lbwlnw0ubgv1)" height="2.0833" style="stroke:#2FA4E7;stroke-width:1.0417;" width="4.1667" x="2518.8547" y="291.9166"/><text fill="#FFFFFF" font-family="'Verdana'" font-size="12.5" lengthAdjust="spacing" textLength="78.7505" x="2436.9792" y="314.6542">Humidity Log</text></g><!--entity Note Entry--><g class="entity" data-qualified-name="Note Entry" data-source-line="49" id="ent0051"><rect fill="url(#g19lbwlnw0ubgv1)" height="48.2751" rx="4.1667" ry="4.1667" style="stroke:#2FA4E7;stroke-width:1.0417;" width="104.2671" x="2578.6458" y="280.4583"/><rect fill="url(#g19lbwlnw0ubgv1)" height="10.4167" style="stroke:#2FA4E7;stroke-width:1.0417;" width="15.625" x="2662.0796" y="285.6666"/><rect fill="url(#g19lbwlnw0ubgv1)" height="2.0833" style="stroke:#2FA4E7;stroke-width:1.0417;" width="4.1667" x="2659.9963" y="287.75"/><rect fill="url(#g19lbwlnw0ubgv1)" height="2.0833" style="stroke:#2FA4E7;stroke-width:1.0417;" width="4.1667" x="2659.9963" y="291.9166"/><text fill="#FFFFFF" font-family="'Verdana'" font-size="12.5" lengthAdjust="spacing" textLength="62.6005" x="2594.2708" y="314.6542">Note Entry</text></g><!--entity Side-by-Side--><g class="entity" data-qualified-name="Side-by-Side" data-source-line="51" id="ent0053"><rect fill="url(#g19lbwlnw0ubgv1)" height="48.2751" rx="4.1667" ry="4.1667" style="stroke:#2FA4E7;stroke-width:1.0417;" width="113.4297" x="2719.7917" y="280.4583"/><rect fill="url(#g19lbwlnw0ubgv1)" height="10.4167" style="stroke:#2FA4E7;stroke-width:1.0417;" width="15.625" x="2812.388" y="285.6666"/><rect fill="url(#g19lbwlnw0ubgv1)" height="2.0833" style="stroke:#2FA4E7;stroke-width:1.0417;" width="4.1667" x="2810.3047" y="287.75"/><rect fill="url(#g19lbwlnw0ubgv1)" height="2.0833" style="stroke:#2FA4E7;stroke-width:1.0417;" width="4.1667" x="2810.3047" y="291.9166"/><text fill="#FFFFFF" font-family="'Verdana'" font-size="12.5" lengthAdjust="spacing" textLength="71.763" x="2735.4167" y="314.6542">Side-by-Side</text></g><!--entity Growth Charts--><g class="entity" data-qualified-name="Growth Charts" data-source-line="52" id="ent0055"><rect fill="url(#g19lbwlnw0ubgv1)" height="48.2751" rx="4.1667" ry="4.1667" style="stroke:#2FA4E7;stroke-width:1.0417;" width="127.1048" x="2870.3125" y="280.4583"/><rect fill="url(#g19lbwlnw0ubgv1)" height="10.4167" style="stroke:#2FA4E7;stroke-width:1.0417;" width="15.625" x="2976.584" y="285.6666"/><rect fill="url(#g19lbwlnw0ubgv1)" height="2.0833" style="stroke:#2FA4E7;stroke-width:1.0417;" width="4.1667" x="2974.5006" y="287.75"/><rect fill="url(#g19lbwlnw0ubgv1)" height="2.0833" style="stroke:#2FA4E7;stroke-width:1.0417;" width="4.1667" x="2974.5006" y="291.9166"/><text fill="#FFFFFF" font-family="'Verdana'" font-size="12.5" lengthAdjust="spacing" textLength="85.4381" x="2885.9375" y="314.6542">Growth Charts</text></g><!--entity Gap Analysis--><g class="entity" data-qualified-name="Gap Analysis" data-source-line="53" id="ent0057"><rect fill="url(#g19lbwlnw0ubgv1)" height="48.2751" rx="4.1667" ry="4.1667" style="stroke:#2FA4E7;stroke-width:1.0417;" width="116.2422" x="3033.8542" y="280.4583"/><rect fill="url(#g19lbwlnw0ubgv1)" height="10.4167" style="stroke:#2FA4E7;stroke-width:1.0417;" width="15.625" x="3129.263" y="285.6666"/><rect fill="url(#g19lbwlnw0ubgv1)" height="2.0833" style="stroke:#2FA4E7;stroke-width:1.0417;" width="4.1667" x="3127.1797" y="287.75"/><rect fill="url(#g19lbwlnw0ubgv1)" height="2.0833" style="stroke:#2FA4E7;stroke-width:1.0417;" width="4.1667" x="3127.1797" y="291.9166"/><text fill="#FFFFFF" font-family="'Verdana'" font-size="12.5" lengthAdjust="spacing" textLength="74.5755" x="3049.4792" y="314.6542">Gap Analysis</text></g><!--entity QR Scanner--><g class="entity" data-qualified-name="QR Scanner" data-source-line="55" id="ent0059"><rect fill="url(#g19lbwlnw0ubgv1)" height="48.2751" rx="4.1667" ry="4.1667" style="stroke:#2FA4E7;stroke-width:1.0417;" width="109.9921" x="3186.9792" y="280.4583"/><rect fill="url(#g19lbwlnw0ubgv1)" height="10.4167" style="stroke:#2FA4E7;stroke-width:1.0417;" width="15.625" x="3276.138" y="285.6666"/><rect fill="url(#g19lbwlnw0ubgv1)" height="2.0833" style="stroke:#2FA4E7;stroke-width:1.0417;" width="4.1667" x="3274.0546" y="287.75"/><rect fill="url(#g19lbwlnw0ubgv1)" height="2.0833" style="stroke:#2FA4E7;stroke-width:1.0417;" width="4.1667" x="3274.0546" y="291.9166"/><text fill="#FFFFFF" font-family="'Verdana'" font-size="12.5" lengthAdjust="spacing" textLength="68.3255" x="3202.6042" y="314.6542">QR Scanner</text></g><!--entity Camera Capture--><g class="entity" data-qualified-name="Camera Capture" data-source-line="56" id="ent0061"><rect fill="url(#g19lbwlnw0ubgv1)" height="48.2751" rx="4.1667" ry="4.1667" style="stroke:#2FA4E7;stroke-width:1.0417;" width="137.7923" x="3333.8542" y="280.4583"/><rect fill="url(#g19lbwlnw0ubgv1)" height="10.4167" style="stroke:#2FA4E7;stroke-width:1.0417;" width="15.625" x="3450.8132" y="285.6666"/><rect fill="url(#g19lbwlnw0ubgv1)" height="2.0833" style="stroke:#2FA4E7;stroke-width:1.0417;" width="4.1667" x="3448.7298" y="287.75"/><rect fill="url(#g19lbwlnw0ubgv1)" height="2.0833" style="stroke:#2FA4E7;stroke-width:1.0417;" width="4.1667" x="3448.7298" y="291.9166"/><text fill="#FFFFFF" font-family="'Verdana'" font-size="12.5" lengthAdjust="spacing" textLength="96.1257" x="3349.4792" y="314.6542">Camera Capture</text></g><!--entity Printer Config--><g class="entity" data-qualified-name="Printer Config" data-source-line="58" id="ent0063"><rect fill="url(#g19lbwlnw0ubgv1)" height="48.2751" rx="4.1667" ry="4.1667" style="stroke:#2FA4E7;stroke-width:1.0417;" width="123.7173" x="3508.3333" y="280.4583"/><rect fill="url(#g19lbwlnw0ubgv1)" height="10.4167" style="stroke:#2FA4E7;stroke-width:1.0417;" width="15.625" x="3611.2173" y="285.6666"/><rect fill="url(#g19lbwlnw0ubgv1)" height="2.0833" style="stroke:#2FA4E7;stroke-width:1.0417;" width="4.1667" x="3609.1339" y="287.75"/><rect fill="url(#g19lbwlnw0ubgv1)" height="2.0833" style="stroke:#2FA4E7;stroke-width:1.0417;" width="4.1667" x="3609.1339" y="291.9166"/><text fill="#FFFFFF" font-family="'Verdana'" font-size="12.5" lengthAdjust="spacing" textLength="82.0506" x="3523.9583" y="314.6542">Printer Config</text></g><!--entity Export / Import--><g class="entity" data-qualified-name="Export . Import" data-source-line="59" id="ent0065"><rect fill="url(#g19lbwlnw0ubgv1)" height="48.2751" rx="4.1667" ry="4.1667" style="stroke:#2FA4E7;stroke-width:1.0417;" width="132.1548" x="3668.75" y="280.4583"/><rect fill="url(#g19lbwlnw0ubgv1)" height="10.4167" style="stroke:#2FA4E7;stroke-width:1.0417;" width="15.625" x="3780.0715" y="285.6666"/><rect fill="url(#g19lbwlnw0ubgv1)" height="2.0833" style="stroke:#2FA4E7;stroke-width:1.0417;" width="4.1667" x="3777.9881" y="287.75"/><rect fill="url(#g19lbwlnw0ubgv1)" height="2.0833" style="stroke:#2FA4E7;stroke-width:1.0417;" width="4.1667" x="3777.9881" y="291.9166"/><text fill="#FFFFFF" font-family="'Verdana'" font-size="12.5" lengthAdjust="spacing" textLength="90.4881" x="3684.375" y="314.6542">Export / Import</text></g><!--entity Backup / Restore--><g class="entity" data-qualified-name="Backup . Restore" data-source-line="60" id="ent0067"><rect fill="url(#g19lbwlnw0ubgv1)" height="48.2751" rx="4.1667" ry="4.1667" style="stroke:#2FA4E7;stroke-width:1.0417;" width="141.1424" x="3837.5" y="280.4583"/><rect fill="url(#g19lbwlnw0ubgv1)" height="10.4167" style="stroke:#2FA4E7;stroke-width:1.0417;" width="15.625" x="3957.8091" y="285.6666"/><rect fill="url(#g19lbwlnw0ubgv1)" height="2.0833" style="stroke:#2FA4E7;stroke-width:1.0417;" width="4.1667" x="3955.7257" y="287.75"/><rect fill="url(#g19lbwlnw0ubgv1)" height="2.0833" style="stroke:#2FA4E7;stroke-width:1.0417;" width="4.1667" x="3955.7257" y="291.9166"/><text fill="#FFFFFF" font-family="'Verdana'" font-size="12.5" lengthAdjust="spacing" textLength="99.4757" x="3853.125" y="314.6542">Backup / Restore</text></g><!--link root to dash--><g class="link" data-entity-1="ent0002" data-entity-2="ent0003" data-link-type="dependency" data-source-line="20" id="lnk11"><path d="M2117.7708,102.9687 C1842.8438,117.2083 579.0958,182.6557 328.825,195.6245" fill="none" id="root-to-dash" style="stroke:#2FA4E7;stroke-width:3.125;"/><polygon fill="#2FA4E7" points="322.5833,195.9479,332.1614,199.6238,327.7847,195.6784,331.7301,191.3017,322.5833,195.9479" style="stroke:#2FA4E7;stroke-width:3.125;"/></g><!--link root to detail--><g class="link" data-entity-1="ent0002" data-entity-2="ent0004" data-link-type="dependency" data-source-line="21" id="lnk12"><path d="M2117.9688,104.1458 C1904.1563,120.0729 1105.2119,179.5878 906.5036,194.3899" fill="none" id="root-to-detail" style="stroke:#2FA4E7;stroke-width:3.125;"/><polygon fill="#2FA4E7" points="900.2708,194.8541,909.9295,198.3129,905.4648,194.4672,909.3104,190.0026,900.2708,194.8541" style="stroke:#2FA4E7;stroke-width:3.125;"/></g><!--link root to create--><g class="link" data-entity-1="ent0002" data-entity-2="ent0005" data-link-type="dependency" data-source-line="22" id="lnk13"><path d="M2118.1563,107.1771 C1980.6875,125.4271 1616.2581,173.8128 1485.4769,191.1773" fill="none" id="root-to-create" style="stroke:#2FA4E7;stroke-width:3.125;"/><polygon fill="#2FA4E7" points="1479.2813,192,1489.1231,194.8964,1484.4443,191.3144,1488.0263,186.6356,1479.2813,192" style="stroke:#2FA4E7;stroke-width:3.125;"/></g><!--link root to label--><g class="link" data-entity-1="ent0002" data-entity-2="ent0006" data-link-type="dependency" data-source-line="23" id="lnk14"><path d="M2128.0625,117.9791 C2085.9063,135.6771 2027.2629,160.2789 1985.0754,177.9872" fill="none" id="root-to-label" style="stroke:#2FA4E7;stroke-width:3.125;"/><polygon fill="#2FA4E7" points="1979.3125,180.4062,1989.5695,180.6197,1984.1149,178.3904,1986.3442,172.9358,1979.3125,180.4062" style="stroke:#2FA4E7;stroke-width:3.125;"/></g><!--link root to logger--><g class="link" data-entity-1="ent0002" data-entity-2="ent0007" data-link-type="dependency" data-source-line="24" id="lnk15"><path d="M2198.4167,117.9791 C2226.4583,135.6771 2264.0165,159.3625 2292.079,177.0708" fill="none" id="root-to-logger" style="stroke:#2FA4E7;stroke-width:3.125;"/><polygon fill="#2FA4E7" points="2297.3646,180.4062,2291.6598,171.8794,2292.9599,177.6267,2287.2126,178.9269,2297.3646,180.4062" style="stroke:#2FA4E7;stroke-width:3.125;"/></g><!--link root to compare--><g class="link" data-entity-1="ent0002" data-entity-2="ent0008" data-link-type="dependency" data-source-line="25" id="lnk16"><path d="M2222.5938,107.7291 C2349.6146,125.9062 2667.188,171.3443 2795.2296,189.6568" fill="none" id="root-to-compare" style="stroke:#2FA4E7;stroke-width:3.125;"/><polygon fill="#2FA4E7" points="2801.4167,190.5416,2792.726,185.0896,2796.2608,189.8042,2791.5462,193.339,2801.4167,190.5416" style="stroke:#2FA4E7;stroke-width:3.125;"/></g><!--link root to scan--><g class="link" data-entity-1="ent0002" data-entity-2="ent0009" data-link-type="dependency" data-source-line="26" id="lnk17"><path d="M2222.7396,105.0416 C2406.9375,121.8646 3016.4947,177.5457 3190.0676,193.4103" fill="none" id="root-to-scan" style="stroke:#2FA4E7;stroke-width:3.125;"/><polygon fill="#2FA4E7" points="3196.2917,193.9791,3187.3348,188.9765,3191.105,193.5051,3186.5763,197.2752,3196.2917,193.9791" style="stroke:#2FA4E7;stroke-width:3.125;"/></g><!--link root to settings--><g class="link" data-entity-1="ent0002" data-entity-2="ent0010" data-link-type="dependency" data-source-line="27" id="lnk18"><path d="M2222.6354,103.7083 C2458.8542,119.3125 3416.5865,182.5776 3611.7948,195.4734" fill="none" id="root-to-settings" style="stroke:#2FA4E7;stroke-width:3.125;"/><polygon fill="#2FA4E7" points="3618.0313,195.8854,3608.9513,191.1098,3612.8342,195.5421,3608.402,199.425,3618.0313,195.8854" style="stroke:#2FA4E7;stroke-width:3.125;"/></g><!--link dash to Plant List--><g class="link" data-entity-1="ent0003" data-entity-2="ent0019" data-link-type="dependency" data-source-line="29" id="lnk20"><path d="M242.8021,217.9791 C206.8542,235.25 157.6543,258.8973 118.4147,277.7515" fill="none" id="dash-to-Plant List" style="stroke:#2FA4E7;stroke-width:3.125;"/><polygon fill="#2FA4E7" points="112.7813,280.4583,123.036,280.1537,117.4758,278.2026,119.4269,272.6425,112.7813,280.4583" style="stroke:#2FA4E7;stroke-width:3.125;"/></g><!--link dash to Quick Stats--><g class="link" data-entity-1="ent0003" data-entity-2="ent0021" data-link-type="dependency" data-source-line="30" id="lnk22"><path d="M266.2604,218.2083 C253.4063,235.4062 237.689,256.4308 223.6786,275.1808" fill="none" id="dash-to-Quick Stats" style="stroke:#2FA4E7;stroke-width:3.125;"/><polygon fill="#2FA4E7" points="219.9375,280.1875,228.8869,275.1715,223.0551,276.0153,222.2114,270.1834,219.9375,280.1875" style="stroke:#2FA4E7;stroke-width:3.125;"/></g><!--link dash to Search / Filters--><g class="link" data-entity-1="ent0003" data-entity-2="ent0023" data-link-type="dependency" data-source-line="31" id="lnk24"><path d="M293.1146,218.2083 C305.9688,235.4062 321.686,256.4308 335.6964,275.1808" fill="none" id="dash-to-Search / Filters" style="stroke:#2FA4E7;stroke-width:3.125;"/><polygon fill="#2FA4E7" points="339.4375,280.1875,337.1636,270.1834,336.3199,276.0153,330.4881,275.1715,339.4375,280.1875" style="stroke:#2FA4E7;stroke-width:3.125;"/></g><!--link detail to Overview Header--><g class="link" data-entity-1="ent0004" data-entity-2="ent0025" data-link-type="dependency" data-source-line="33" id="lnk26"><path d="M811.2813,214.2604 C756.9583,231.3958 670.3046,258.7148 605.9609,278.9961" fill="none" id="detail-to-Overview Header" style="stroke:#2FA4E7;stroke-width:3.125;"/><polygon fill="#2FA4E7" points="600,280.875,610.1939,282.0306,604.9674,279.3092,607.6888,274.0827,600,280.875" style="stroke:#2FA4E7;stroke-width:3.125;"/></g><!--link detail to Care Timeline--><g class="link" data-entity-1="ent0004" data-entity-2="ent0027" data-link-type="dependency" data-source-line="34" id="lnk28"><path d="M828.5104,217.9791 C802.0729,235.1979 767.0395,258.0165 738.102,276.8603" fill="none" id="detail-to-Care Timeline" style="stroke:#2FA4E7;stroke-width:3.125;"/><polygon fill="#2FA4E7" points="732.8646,280.2708,742.9944,278.6466,737.2291,277.4287,738.447,271.6634,732.8646,280.2708" style="stroke:#2FA4E7;stroke-width:3.125;"/></g><!--link detail to Photo Gallery--><g class="link" data-entity-1="ent0004" data-entity-2="ent0029" data-link-type="dependency" data-source-line="35" id="lnk30"><path d="M855.7292,218.2083 C855.7292,235.4062 855.7292,255.1875 855.7292,273.9375" fill="none" id="detail-to-Photo Gallery" style="stroke:#2FA4E7;stroke-width:3.125;"/><polygon fill="#2FA4E7" points="855.7292,280.1875,859.8958,270.8125,855.7292,274.9791,851.5625,270.8125,855.7292,280.1875" style="stroke:#2FA4E7;stroke-width:3.125;"/></g><!--link detail to Quick Actions--><g class="link" data-entity-1="ent0004" data-entity-2="ent0031" data-link-type="dependency" data-source-line="36" id="lnk32"><path d="M882.7708,217.9791 C909.0313,235.1979 943.815,258.0001 972.5546,276.8438" fill="none" id="detail-to-Quick Actions" style="stroke:#2FA4E7;stroke-width:3.125;"/><polygon fill="#2FA4E7" points="977.7813,280.2708,972.2259,271.6459,973.4257,277.415,967.6566,278.6148,977.7813,280.2708" style="stroke:#2FA4E7;stroke-width:3.125;"/></g><!--link create to Seed Packet Form--><g class="link" data-entity-1="ent0005" data-entity-2="ent0033" data-link-type="dependency" data-source-line="38" id="lnk34"><path d="M1390.0104,217.9791 C1348.4479,235.1979 1290.8994,259.0356 1245.3994,277.8794" fill="none" id="create-to-Seed Packet Form" style="stroke:#2FA4E7;stroke-width:3.125;"/><polygon fill="#2FA4E7" points="1239.625,280.2708,1249.8809,280.5332,1244.437,278.2779,1246.6923,272.834,1239.625,280.2708" style="stroke:#2FA4E7;stroke-width:3.125;"/></g><!--link create to Auto Plant ID--><g class="link" data-entity-1="ent0005" data-entity-2="ent0035" data-link-type="dependency" data-source-line="39" id="lnk36"><path d="M1419.0208,218.2083 C1405.8229,235.4062 1389.6499,256.4801 1375.2541,275.2301" fill="none" id="create-to-Auto Plant ID" style="stroke:#2FA4E7;stroke-width:3.125;"/><polygon fill="#2FA4E7" points="1371.4479,280.1875,1380.4621,275.2888,1374.6197,276.0563,1373.8522,270.214,1371.4479,280.1875" style="stroke:#2FA4E7;stroke-width:3.125;"/></g><!--link create to Label Preview--><g class="link" data-entity-1="ent0005" data-entity-2="ent0037" data-link-type="dependency" data-source-line="40" id="lnk38"><path d="M1446.6042,218.2083 C1459.8021,235.4062 1475.9751,256.4801 1490.3709,275.2301" fill="none" id="create-to-Label Preview" style="stroke:#2FA4E7;stroke-width:3.125;"/><polygon fill="#2FA4E7" points="1494.1771,280.1875,1491.7728,270.214,1491.0053,276.0563,1485.1629,275.2888,1494.1771,280.1875" style="stroke:#2FA4E7;stroke-width:3.125;"/></g><!--link label to Template Selector--><g class="link" data-entity-1="ent0006" data-entity-2="ent0039" data-link-type="dependency" data-source-line="42" id="lnk40"><path d="M1893.4688,217.9791 C1851.1979,235.1979 1792.6005,259.0688 1746.3505,277.9126" fill="none" id="label-to-Template Selector" style="stroke:#2FA4E7;stroke-width:3.125;"/><polygon fill="#2FA4E7" points="1740.5625,280.2708,1750.8167,280.5921,1745.3859,278.3056,1747.6724,272.8748,1740.5625,280.2708" style="stroke:#2FA4E7;stroke-width:3.125;"/></g><!--link label to Label Designer--><g class="link" data-entity-1="ent0006" data-entity-2="ent0041" data-link-type="dependency" data-source-line="43" id="lnk42"><path d="M1923.375,218.2083 C1910.3438,235.4062 1894.3997,256.4561 1880.1914,275.2061" fill="none" id="label-to-Label Designer" style="stroke:#2FA4E7;stroke-width:3.125;"/><polygon fill="#2FA4E7" points="1876.4167,280.1875,1885.3997,275.232,1879.5623,276.0364,1878.7579,270.199,1876.4167,280.1875" style="stroke:#2FA4E7;stroke-width:3.125;"/></g><!--link label to Print Queue--><g class="link" data-entity-1="ent0006" data-entity-2="ent0043" data-link-type="dependency" data-source-line="44" id="lnk44"><path d="M1950.7708,218.2083 C1963.9688,235.4062 1980.1418,256.4801 1994.5376,275.2301" fill="none" id="label-to-Print Queue" style="stroke:#2FA4E7;stroke-width:3.125;"/><polygon fill="#2FA4E7" points="1998.3438,280.1875,1995.9394,270.214,1995.1719,276.0563,1989.3296,275.2888,1998.3438,280.1875" style="stroke:#2FA4E7;stroke-width:3.125;"/></g><!--link logger to Watering Log--><g class="link" data-entity-1="ent0007" data-entity-2="ent0045" data-link-type="dependency" data-source-line="46" id="lnk46"><path d="M2298.6563,217.9791 C2272.5729,235.1979 2238.0393,257.9844 2209.4872,276.8281" fill="none" id="logger-to-Watering Log" style="stroke:#2FA4E7;stroke-width:3.125;"/><polygon fill="#2FA4E7" points="2204.2708,280.2708,2214.3905,278.5844,2208.6178,277.4019,2209.8003,271.6292,2204.2708,280.2708" style="stroke:#2FA4E7;stroke-width:3.125;"/></g><!--link logger to Fertilizer Log--><g class="link" data-entity-1="ent0007" data-entity-2="ent0047" data-link-type="dependency" data-source-line="47" id="lnk48"><path d="M2325.5208,218.2083 C2325.5208,235.4062 2325.5208,255.1875 2325.5208,273.9375" fill="none" id="logger-to-Fertilizer Log" style="stroke:#2FA4E7;stroke-width:3.125;"/><polygon fill="#2FA4E7" points="2325.5208,280.1875,2329.6875,270.8125,2325.5208,274.9791,2321.3542,270.8125,2325.5208,280.1875" style="stroke:#2FA4E7;stroke-width:3.125;"/></g><!--link logger to Humidity Log--><g class="link" data-entity-1="ent0007" data-entity-2="ent0049" data-link-type="dependency" data-source-line="48" id="lnk50"><path d="M2352.3854,217.9791 C2378.4688,235.1979 2413.0024,257.9844 2441.5545,276.8281" fill="none" id="logger-to-Humidity Log" style="stroke:#2FA4E7;stroke-width:3.125;"/><polygon fill="#2FA4E7" points="2446.7708,280.2708,2441.2414,271.6292,2442.4239,277.4019,2436.6512,278.5844,2446.7708,280.2708" style="stroke:#2FA4E7;stroke-width:3.125;"/></g><!--link logger to Note Entry--><g class="link" data-entity-1="ent0007" data-entity-2="ent0051" data-link-type="dependency" data-source-line="49" id="lnk52"><path d="M2377.9896,217.9791 C2434.0625,236.9271 2516.506,264.7804 2572.5164,283.7075" fill="none" id="logger-to-Note Entry" style="stroke:#2FA4E7;stroke-width:3.125;"/><polygon fill="#2FA4E7" points="2578.4375,285.7083,2570.8898,278.7596,2573.5033,284.0409,2568.222,286.6544,2578.4375,285.7083" style="stroke:#2FA4E7;stroke-width:3.125;"/></g><!--link compare to Side-by-Side--><g class="link" data-entity-1="ent0008" data-entity-2="ent0053" data-link-type="dependency" data-source-line="51" id="lnk54"><path d="M2841.0833,218.2083 C2828.0521,235.4062 2812.1081,256.4561 2797.8997,275.2061" fill="none" id="compare-to-Side-by-Side" style="stroke:#2FA4E7;stroke-width:3.125;"/><polygon fill="#2FA4E7" points="2794.125,280.1875,2803.108,275.232,2797.2706,276.0364,2796.4662,270.199,2794.125,280.1875" style="stroke:#2FA4E7;stroke-width:3.125;"/></g><!--link compare to Growth Charts--><g class="link" data-entity-1="ent0008" data-entity-2="ent0055" data-link-type="dependency" data-source-line="52" id="lnk56"><path d="M2868.4792,218.2083 C2881.6771,235.4062 2897.8501,256.4801 2912.2459,275.2301" fill="none" id="compare-to-Growth Charts" style="stroke:#2FA4E7;stroke-width:3.125;"/><polygon fill="#2FA4E7" points="2916.0521,280.1875,2913.6478,270.214,2912.8803,276.0563,2907.0379,275.2888,2916.0521,280.1875" style="stroke:#2FA4E7;stroke-width:3.125;"/></g><!--link compare to Gap Analysis--><g class="link" data-entity-1="ent0008" data-entity-2="ent0057" data-link-type="dependency" data-source-line="53" id="lnk58"><path d="M2895.5104,217.9791 C2935.1667,235.1979 2989.8505,258.9377 3033.2463,277.7814" fill="none" id="compare-to-Gap Analysis" style="stroke:#2FA4E7;stroke-width:3.125;"/><polygon fill="#2FA4E7" points="3038.9792,280.2708,3032.0395,272.7149,3034.2018,278.1963,3028.7203,280.3586,3038.9792,280.2708" style="stroke:#2FA4E7;stroke-width:3.125;"/></g><!--link scan to QR Scanner--><g class="link" data-entity-1="ent0009" data-entity-2="ent0059" data-link-type="dependency" data-source-line="55" id="lnk60"><path d="M3242.1875,218.2083 C3242.1875,235.4062 3242.1875,255.1875 3242.1875,273.9375" fill="none" id="scan-to-QR Scanner" style="stroke:#2FA4E7;stroke-width:3.125;"/><polygon fill="#2FA4E7" points="3242.1875,280.1875,3246.3542,270.8125,3242.1875,274.9791,3238.0208,270.8125,3242.1875,280.1875" style="stroke:#2FA4E7;stroke-width:3.125;"/></g><!--link scan to Camera Capture--><g class="link" data-entity-1="ent0009" data-entity-2="ent0061" data-link-type="dependency" data-source-line="56" id="lnk62"><path d="M3269.7604,217.9791 C3296.5521,235.1979 3332.0968,258.0473 3361.4093,276.8911" fill="none" id="scan-to-Camera Capture" style="stroke:#2FA4E7;stroke-width:3.125;"/><polygon fill="#2FA4E7" points="3366.6667,280.2708,3361.0338,271.6963,3362.2855,277.4544,3356.5275,278.7061,3366.6667,280.2708" style="stroke:#2FA4E7;stroke-width:3.125;"/></g><!--link settings to Printer Config--><g class="link" data-entity-1="ent0010" data-entity-2="ent0063" data-link-type="dependency" data-source-line="58" id="lnk64"><path d="M3638.2708,218.2083 C3624.5521,235.4062 3607.6806,256.5531 3592.7119,275.3031" fill="none" id="settings-to-Printer Config" style="stroke:#2FA4E7;stroke-width:3.125;"/><polygon fill="#2FA4E7" points="3588.8125,280.1875,3597.9178,275.4605,3592.062,276.1171,3591.4053,270.2613,3588.8125,280.1875" style="stroke:#2FA4E7;stroke-width:3.125;"/></g><!--link settings to Export / Import--><g class="link" data-entity-1="ent0010" data-entity-2="ent0065" data-link-type="dependency" data-source-line="59" id="lnk66"><path d="M3666.9375,218.2083 C3680.6563,235.4062 3697.5277,256.5531 3712.4965,275.3031" fill="none" id="settings-to-Export / Import" style="stroke:#2FA4E7;stroke-width:3.125;"/><polygon fill="#2FA4E7" points="3716.3958,280.1875,3713.803,270.2613,3713.1464,276.1171,3707.2905,275.4605,3716.3958,280.1875" style="stroke:#2FA4E7;stroke-width:3.125;"/></g><!--link settings to Backup / Restore--><g class="link" data-entity-1="ent0010" data-entity-2="ent0067" data-link-type="dependency" data-source-line="60" id="lnk68"><path d="M3687.0208,214.1562 C3729.0625,231.1458 3794.9866,257.7831 3845.247,278.0956" fill="none" id="settings-to-Backup / Restore" style="stroke:#2FA4E7;stroke-width:3.125;"/><polygon fill="#2FA4E7" points="3851.0417,280.4375,3843.9109,273.0615,3846.2128,278.4859,3840.7884,280.7878,3851.0417,280.4375" style="stroke:#2FA4E7;stroke-width:3.125;"/></g><?plantuml-src PPHDZzCm48Rl-HN3Sgv0804df2NTxbOgqDqMEA0UficaiTQnex7JKX3_dN6ST6FsLCyyu_buFSqBNrD3K11tcj1aNdbDiDPeF6mPYqTb3h0vEqyDpE3R4ZO54nduZ6sMEQ4jCZR0L7Wq1xdw9mFu9FSER3jJvbPRXfVLw-fzLGLYkIGUl6_t7zvKxxA_apoknjAUGiqAjQCiUqfybJPr1UY0hVNJa3cwUc-HovwMOZrFC2UFIiU0_ZWDoPdG3_Ft8KNlc8QiS4yQDhuhbUr3T71C8wuBhuxAds5b3mVY6DGVarAsaPa9lYiwnLBHCOtP56W6nViG9tR2oNlHmaKu62AQo0ApsST1WOirZ3lQusoZFGnoCOUMB-5ZVwCZTdEnBkL3rTxrCog-Kixl9jxxJXMFeY1wDtLl2BceuHKibFR4mhBOSSHVZyH7qGhk26M7TWdCWv9RrP1MXbAqhgstS8jQ4vzJ51i9psLDA1S56RkX4jQoQ-HXORdP9VIwavnnkkKyHN4_raoXMKdQgnhHbffMXy0DQNb4AqDCQBmu9wSEXbAqPYMLxZlgA6Ji7oQI7vAEm_z5TcsNa0MnLrhz5liPk-iQLGuRcf8lLjgxCJv8bGqlFWYYIfhjpxFmkqlHBTkJho6laSEJfWnRk3Qepqu5YSFE3E8_G5ZlVjGdRuuDCKAEhUyu33kkrKG8wJMtfbBIUaflVhMMlMpGiWc7_t7uB7Mju0To8Zxj_W40?></g></svg>