<svg xmlns="http://www.w3.org/2000/svg" xmlns:xlink="http://www.w3.org/1999/xlink" contentStyleType="text/css" data-diagram-type="STATE" height="1435.4167px" preserveAspectRatio="none" style="width:1109px;height:1435px;" version="1.1" viewBox="0 0 1109 1435" width="1109.375px" zoomAndPan="magnify"><?plantuml 1.2026.3?><defs><linearGradient id="gnzjv5kixxvtm0" x1="50%" x2="50%" y1="0%" y2="100%"><stop offset="0%" stop-color="#EDF0F2"/><stop offset="100%" stop-color="#E9ECEF"/></linearGradient><linearGradient id="gnzjv5kixxvtm1" x1="50%" x2="50%" y1="0%" y2="100%"><stop offset="0%" stop-color="#35638F"/><stop offset="100%" stop-color="#033C73"/></linearGradient></defs><g><g class="title" data-source-line="8"><rect fill="url(#gnzjv5kixxvtm0)" height="40.875" rx="4.1667" ry="4.1667" style="stroke:#BABDBF;stroke-width:1.0417;" width="408.2913" x="349.5006" y="20.8333"/><text fill="#2FA4E7" font-family="'Verdana'" font-size="20.8333" font-weight="700" lengthAdjust="spacing" textLength="395.7913" x="355.7506" y="49.3541">Plant Record Lifecycle - State Diagram</text></g><g class="start_entity" data-qualified-name=".start." data-source-line="10" id="ent0002"><ellipse cx="377.0833" cy="92.9583" fill="#033C73" rx="10.4167" ry="10.4167" style="stroke:#2683B9;stroke-width:1.0417;"/></g><g class="entity" data-qualified-name="Seed_Packet_Entered" id="ent0003"><rect fill="#EEF6FF" height="52.0833" rx="4.1667" ry="4.1667" style="stroke:#2563EB;stroke-width:1.0417;" width="135.1408" x="390.625" y="187.75"/><line style="stroke:#2563EB;stroke-width:1.0417;" x1="390.625" x2="525.7658" y1="213.7728" y2="213.7728"/><text fill="#343A40" font-family="'Verdana'" font-size="11.4583" lengthAdjust="spacing" textLength="114.3075" x="401.0417" y="205.2072">Seed_Packet_Entered</text></g><g class="entity" data-qualified-name="Indoor_Seedling" id="ent0005"><rect fill="#EEF6FF" height="52.0833" rx="4.1667" ry="4.1667" style="stroke:#2563EB;stroke-width:1.0417;" width="108.8327" x="404.1667" y="321.0833"/><line style="stroke:#2563EB;stroke-width:1.0417;" x1="404.1667" x2="512.9993" y1="347.1061" y2="347.1061"/><text fill="#343A40" font-family="'Verdana'" font-size="11.4583" lengthAdjust="spacing" textLength="87.9993" x="414.5833" y="338.5405">Indoor_Seedling</text></g><g class="entity" data-qualified-name="Indoor_Growing" id="ent0007"><rect fill="#EEF6FF" height="52.0833" rx="4.1667" ry="4.1667" style="stroke:#2563EB;stroke-width:1.0417;" width="108.6264" x="327.0833" y="454.4166"/><line style="stroke:#2563EB;stroke-width:1.0417;" x1="327.0833" x2="435.7098" y1="480.4394" y2="480.4394"/><text fill="#343A40" font-family="'Verdana'" font-size="11.4583" lengthAdjust="spacing" textLength="87.7931" x="337.5" y="471.8738">Indoor_Growing</text></g><g class="entity" data-qualified-name="Transplanted_Outdoor" id="ent0009"><rect fill="#EEF6FF" height="52.0833" rx="4.1667" ry="4.1667" style="stroke:#2563EB;stroke-width:1.0417;" width="142.9897" x="309.8958" y="587.75"/><line style="stroke:#2563EB;stroke-width:1.0417;" x1="309.8958" x2="452.8856" y1="613.7728" y2="613.7728"/><text fill="#343A40" font-family="'Verdana'" font-size="11.4583" lengthAdjust="spacing" textLength="122.1564" x="320.3125" y="605.2072">Transplanted_Outdoor</text></g><g class="entity" data-qualified-name="Flowering" id="ent0011"><rect fill="#EEF6FF" height="52.0833" rx="4.1667" ry="4.1667" style="stroke:#2563EB;stroke-width:1.0417;" width="73.9538" x="347.3958" y="721.0833"/><line style="stroke:#2563EB;stroke-width:1.0417;" x1="347.3958" x2="421.3496" y1="747.1061" y2="747.1061"/><text fill="#343A40" font-family="'Verdana'" font-size="11.4583" lengthAdjust="spacing" textLength="53.1204" x="357.8125" y="738.5405">Flowering</text></g><g class="entity" data-qualified-name="Fruiting" id="ent0013"><rect fill="#EEF6FF" height="52.0833" rx="4.1667" ry="4.1667" style="stroke:#2563EB;stroke-width:1.0417;" width="62.7705" x="362.5" y="854.4166"/><line style="stroke:#2563EB;stroke-width:1.0417;" x1="362.5" x2="425.2705" y1="880.4394" y2="880.4394"/><text fill="#343A40" font-family="'Verdana'" font-size="11.4583" lengthAdjust="spacing" textLength="41.9372" x="372.9167" y="871.8738">Fruiting</text></g><g class="entity" data-qualified-name="Harvesting" id="ent0015"><rect fill="#EEF6FF" height="52.0833" rx="4.1667" ry="4.1667" style="stroke:#2563EB;stroke-width:1.0417;" width="79.4767" x="354.1667" y="987.75"/><line style="stroke:#2563EB;stroke-width:1.0417;" x1="354.1667" x2="433.6433" y1="1013.7728" y2="1013.7728"/><text fill="#343A40" font-family="'Verdana'" font-size="11.4583" lengthAdjust="spacing" textLength="58.6433" x="364.5833" y="1005.2072">Harvesting</text></g><g class="entity" data-qualified-name="Season_Complete" id="ent0017"><rect fill="#EEF6FF" height="52.0833" rx="4.1667" ry="4.1667" style="stroke:#2563EB;stroke-width:1.0417;" width="116.5555" x="352.0833" y="1121.0833"/><line style="stroke:#2563EB;stroke-width:1.0417;" x1="352.0833" x2="468.6389" y1="1147.1061" y2="1147.1061"/><text fill="#343A40" font-family="'Verdana'" font-size="11.4583" lengthAdjust="spacing" textLength="95.7222" x="362.5" y="1138.5405">Season_Complete</text></g><g class="entity" data-qualified-name="Dormant" id="ent0019"><rect fill="#EEF6FF" height="52.0833" rx="4.1667" ry="4.1667" style="stroke:#2563EB;stroke-width:1.0417;" width="69.2215" x="502.0833" y="1254.4166"/><line style="stroke:#2563EB;stroke-width:1.0417;" x1="502.0833" x2="571.3049" y1="1280.4394" y2="1280.4394"/><text fill="#343A40" font-family="'Verdana'" font-size="11.4583" lengthAdjust="spacing" textLength="48.3882" x="512.5" y="1271.8738">Dormant</text></g><g class="end_entity" data-qualified-name=".end." data-source-line="29" id="ent0022"><ellipse cx="336.4583" cy="1401.2916" fill="none" rx="11.4583" ry="11.4583" style="stroke:#033C73;stroke-width:1.0417;"/><ellipse cx="336.4583" cy="1401.2916" fill="none" rx="6.25" ry="6.25" style="stroke:#033C73;stroke-width:1.0417;"/></g><g class="entity" data-qualified-name="GMN2" data-source-line="32" id="ent0003"><path d="M423.9583,83.5833 L423.9583,102.6918 A4.1667,4.1667 0 0 0 428.125,106.8584 L652.6807,106.8584 A4.1667,4.1667 0 0 0 656.8473,102.6918 L656.8473,89.8333 L646.4307,79.4166 L428.125,79.4166 A4.1667,4.1667 0 0 0 423.9583,83.5833" fill="url(#gnzjv5kixxvtm1)" style="stroke:#033C73;stroke-width:1.0417;"/><path d="M646.4307,79.4166 L646.4307,87.75 A2.0833,2.0833 0 0 0 648.514,89.8333 L656.8473,89.8333 L646.4307,79.4166" fill="url(#gnzjv5kixxvtm1)" style="stroke:#033C73;stroke-width:1.0417;"/><text fill="#FFFFFF" font-family="'Verdana'" font-size="12.5" lengthAdjust="spacing" textLength="211.014" x="430.2083" y="97.9876">Initial data entry from\nseed packet</text></g><g class="entity" data-qualified-name="GMN5" data-source-line="36" id="ent0006"><path d="M16.6667,604.4166 L16.6667,623.5251 A4.1667,4.1667 0 0 0 20.8333,627.6918 L269.1642,627.6918 A4.1667,4.1667 0 0 0 273.3308,623.5251 L273.3308,610.6666 L262.9142,600.25 L171.5833,600.25 L335.9375,506.6458 L163.25,600.25 L20.8333,600.25 A4.1667,4.1667 0 0 0 16.6667,604.4166" fill="url(#gnzjv5kixxvtm1)" style="stroke:#033C73;stroke-width:1.0417;"/><path d="M262.9142,600.25 L262.9142,608.5833 A2.0833,2.0833 0 0 0 264.9975,610.6666 L273.3308,610.6666 L262.9142,600.25" fill="url(#gnzjv5kixxvtm1)" style="stroke:#033C73;stroke-width:1.0417;"/><text fill="#FFFFFF" font-family="'Verdana'" font-size="12.5" lengthAdjust="spacing" textLength="234.7892" x="22.9167" y="618.8209">Track: indoor temp,\nhumidity, fertilizer</text></g><g class="entity" data-qualified-name="GMN8" data-source-line="40" id="ent0009"><path d="M39.0625,737.75 L39.0625,756.8584 A4.1667,4.1667 0 0 0 43.2292,761.0251 L307.2476,761.0251 A4.1667,4.1667 0 0 0 311.4143,756.8584 L311.4143,744 L300.9976,733.5833 L198.8542,733.5833 L341.4792,640.1354 L190.5208,733.5833 L43.2292,733.5833 A4.1667,4.1667 0 0 0 39.0625,737.75" fill="url(#gnzjv5kixxvtm1)" style="stroke:#033C73;stroke-width:1.0417;"/><path d="M300.9976,733.5833 L300.9976,741.9166 A2.0833,2.0833 0 0 0 303.081,744 L311.4143,744 L300.9976,733.5833" fill="url(#gnzjv5kixxvtm1)" style="stroke:#033C73;stroke-width:1.0417;"/><text fill="#FFFFFF" font-family="'Verdana'" font-size="12.5" lengthAdjust="spacing" textLength="250.4768" x="45.3125" y="752.1542">Record: new location,\noutdoor conditions</text></g><g class="entity" data-qualified-name="GMN11" data-source-line="44" id="ent0012"><path d="M80.7292,871.0833 L80.7292,890.1918 A4.1667,4.1667 0 0 0 84.8958,894.3584 L320.9141,894.3584 A4.1667,4.1667 0 0 0 325.0807,890.1918 L325.0807,877.3333 L314.6641,866.9166 L224.5938,866.9166 L349.4271,773.4687 L216.2604,866.9166 L84.8958,866.9166 A4.1667,4.1667 0 0 0 80.7292,871.0833" fill="url(#gnzjv5kixxvtm1)" style="stroke:#033C73;stroke-width:1.0417;"/><path d="M314.6641,866.9166 L314.6641,875.25 A2.0833,2.0833 0 0 0 316.7474,877.3333 L325.0807,877.3333 L314.6641,866.9166" fill="url(#gnzjv5kixxvtm1)" style="stroke:#033C73;stroke-width:1.0417;"/><text fill="#FFFFFF" font-family="'Verdana'" font-size="12.5" lengthAdjust="spacing" textLength="222.4766" x="86.9792" y="885.4876">Track: conditions,\nwatering, weather</text></g><g class="entity" data-qualified-name="GMN14" data-source-line="48" id="ent0015"><path d="M103.125,1137.75 L103.125,1156.8584 A4.1667,4.1667 0 0 0 107.2917,1161.0251 L311.7846,1161.0251 A4.1667,4.1667 0 0 0 315.9513,1156.8584 L315.9513,1144 L305.5346,1133.5833 L231.1354,1133.5833 L358.1979,1040.1354 L222.8021,1133.5833 L107.2917,1133.5833 A4.1667,4.1667 0 0 0 103.125,1137.75" fill="url(#gnzjv5kixxvtm1)" style="stroke:#033C73;stroke-width:1.0417;"/><path d="M305.5346,1133.5833 L305.5346,1141.9166 A2.0833,2.0833 0 0 0 307.618,1144 L315.9513,1144 L305.5346,1133.5833" fill="url(#gnzjv5kixxvtm1)" style="stroke:#033C73;stroke-width:1.0417;"/><text fill="#FFFFFF" font-family="'Verdana'" font-size="12.5" lengthAdjust="spacing" textLength="190.9513" x="109.375" y="1152.1542">Record: dates,\nquantity, quality</text></g><g class="entity" data-qualified-name="GMN17" data-source-line="52" id="ent0018"><path d="M222.3958,1271.0833 L222.3958,1290.1918 A4.1667,4.1667 0 0 0 226.5625,1294.3584 L460.6807,1294.3584 A4.1667,4.1667 0 0 0 464.8474,1290.1918 L464.8474,1277.3333 L454.4307,1266.9166 L226.5625,1266.9166 A4.1667,4.1667 0 0 0 222.3958,1271.0833" fill="url(#gnzjv5kixxvtm1)" style="stroke:#033C73;stroke-width:1.0417;"/><path d="M454.4307,1266.9166 L454.4307,1275.25 A2.0833,2.0833 0 0 0 456.5141,1277.3333 L464.8474,1277.3333 L454.4307,1266.9166" fill="url(#gnzjv5kixxvtm1)" style="stroke:#033C73;stroke-width:1.0417;"/><text fill="#FFFFFF" font-family="'Verdana'" font-size="12.5" lengthAdjust="spacing" textLength="220.5766" x="228.6458" y="1285.4876">Record: total yield,\nseason learnings</text></g><g class="entity" data-qualified-name="GMN20" data-source-line="56" id="ent0021"><path d="M384.375,1391.9166 L384.375,1411.0251 A4.1667,4.1667 0 0 0 388.5417,1415.1918 L1084.3758,1415.1918 A4.1667,4.1667 0 0 0 1088.5424,1411.0251 L1088.5424,1398.1666 L1078.1258,1387.75 L719.5625,1387.75 L570.8438,1301.9166 L711.2292,1387.75 L388.5417,1387.75 A4.1667,4.1667 0 0 0 384.375,1391.9166" fill="url(#gnzjv5kixxvtm1)" style="stroke:#033C73;stroke-width:1.0417;"/><path d="M1078.1258,1387.75 L1078.1258,1396.0833 A2.0833,2.0833 0 0 0 1080.2091,1398.1666 L1088.5424,1398.1666 L1078.1258,1387.75" fill="url(#gnzjv5kixxvtm1)" style="stroke:#033C73;stroke-width:1.0417;"/><text fill="#FFFFFF" font-family="'Verdana'" font-size="12.5" lengthAdjust="spacing" textLength="682.2924" x="390.625" y="1406.3209">Available actions at all states:\n- Log watering, fertilizer, humidity\n- Add notes and photos\n- Consult Hermes agent</text></g><!--link *start* to Seed_Packet_Entered--><g class="link" data-entity-1="ent0002" data-entity-2="ent0003" data-link-type="dependency" data-source-line="10" id="lnk4"><path d="M378.7292,103.5312 C381.2604,116.375 387.0313,139.5729 397.9167,156.5 C405.2813,167.9479 410.8505,174.4691 420.788,183.3962" fill="none" id="*start*-to-Seed_Packet_Entered" style="stroke:#6B7280;stroke-width:3.125;"/><polygon fill="#6B7280" points="425.4375,187.5729,421.2478,178.2082,421.5629,184.0923,415.6788,184.4075,425.4375,187.5729" style="stroke:#6B7280;stroke-width:3.125;"/><text fill="#343A40" font-family="'Verdana'" font-size="12.5" lengthAdjust="spacing" textLength="113.9758" x="398.9583" y="152.1542">Create plant record</text></g><!--link Seed_Packet_Entered to Indoor_Seedling--><g class="link" data-entity-1="ent0003" data-entity-2="ent0005" data-link-type="dependency" data-source-line="12" id="lnk6"><path d="M458.3333,240.1354 C458.3333,263.3854 458.3333,291.3854 458.3333,314.6041" fill="none" id="Seed_Packet_Entered-to-Indoor_Seedling" style="stroke:#6B7280;stroke-width:3.125;"/><polygon fill="#6B7280" points="458.3333,320.8541,462.5,311.4791,458.3333,315.6458,454.1667,311.4791,458.3333,320.8541" style="stroke:#6B7280;stroke-width:3.125;"/><text fill="#343A40" font-family="'Verdana'" font-size="12.5" lengthAdjust="spacing" textLength="146.576" x="459.375" y="285.4876">Record germination date</text></g><!--link Indoor_Seedling to Indoor_Growing--><g class="link" data-entity-1="ent0005" data-entity-2="ent0007" data-link-type="dependency" data-source-line="14" id="lnk8"><path d="M426.75,373.3437 C417.3021,382.2708 407.6979,392.9687 401.0417,404.4166 C392.1771,419.6666 388.3212,432.7978 385.5712,447.9957" fill="none" id="Indoor_Seedling-to-Indoor_Growing" style="stroke:#6B7280;stroke-width:3.125;"/><polygon fill="#6B7280" points="384.4583,454.1458,390.2277,445.6625,385.3857,449.0207,382.0275,444.1787,384.4583,454.1458" style="stroke:#6B7280;stroke-width:3.125;"/><text fill="#343A40" font-family="'Verdana'" font-size="12.5" lengthAdjust="spacing" textLength="106.3633" x="402.0833" y="418.8209">Seedling develops</text></g><!--link Indoor_Growing to Transplanted_Outdoor--><g class="link" data-entity-1="ent0007" data-entity-2="ent0009" data-link-type="dependency" data-source-line="16" id="lnk10"><path d="M381.25,506.8021 C381.25,530.0521 381.25,558.0521 381.25,581.2708" fill="none" id="Indoor_Growing-to-Transplanted_Outdoor" style="stroke:#6B7280;stroke-width:3.125;"/><polygon fill="#6B7280" points="381.25,587.5208,385.4167,578.1458,381.25,582.3125,377.0833,578.1458,381.25,587.5208" style="stroke:#6B7280;stroke-width:3.125;"/><text fill="#343A40" font-family="'Verdana'" font-size="12.5" lengthAdjust="spacing" textLength="98.9382" x="382.2917" y="552.1542">Transplant event</text></g><!--link Transplanted_Outdoor to Flowering--><g class="link" data-entity-1="ent0009" data-entity-2="ent0011" data-link-type="dependency" data-source-line="18" id="lnk12"><path d="M379,639.8437 C377.9792,654.4271 377.1979,673.1771 378.125,689.8333 C378.6875,700.0312 379.083,705.0231 380.2392,714.721" fill="none" id="Transplanted_Outdoor-to-Flowering" style="stroke:#6B7280;stroke-width:3.125;"/><polygon fill="#6B7280" points="380.9792,720.9271,384.0066,711.1247,380.3626,715.7554,375.7319,712.1113,380.9792,720.9271" style="stroke:#6B7280;stroke-width:3.125;"/><text fill="#343A40" font-family="'Verdana'" font-size="12.5" lengthAdjust="spacing" textLength="129.526" x="379.1667" y="685.4876">First flowers observed</text></g><!--link Flowering to Fruiting--><g class="link" data-entity-1="ent0011" data-entity-2="ent0013" data-link-type="dependency" data-source-line="20" id="lnk14"><path d="M386.1875,773.4687 C387.8438,796.7187 389.847,824.7346 391.5032,847.9533" fill="none" id="Flowering-to-Fruiting" style="stroke:#6B7280;stroke-width:3.125;"/><polygon fill="#6B7280" points="391.9479,854.1875,395.437,844.5398,391.5773,848.9923,387.1248,845.1327,391.9479,854.1875" style="stroke:#6B7280;stroke-width:3.125;"/><text fill="#343A40" font-family="'Verdana'" font-size="12.5" lengthAdjust="spacing" textLength="74.3506" x="391.6667" y="818.8209">First fruit set</text></g><!--link Fruiting to Harvesting--><g class="link" data-entity-1="ent0013" data-entity-2="ent0015" data-link-type="dependency" data-source-line="22" id="lnk16"><path d="M393.75,906.8021 C393.75,930.0521 393.75,958.0521 393.75,981.2708" fill="none" id="Fruiting-to-Harvesting" style="stroke:#6B7280;stroke-width:3.125;"/><polygon fill="#6B7280" points="393.75,987.5208,397.9167,978.1458,393.75,982.3125,389.5833,978.1458,393.75,987.5208" style="stroke:#6B7280;stroke-width:3.125;"/><text fill="#343A40" font-family="'Verdana'" font-size="12.5" lengthAdjust="spacing" textLength="72.4255" x="394.7917" y="952.1542">First harvest</text></g><!--link Harvesting to Season_Complete--><g class="link" data-entity-1="ent0015" data-entity-2="ent0017" data-link-type="dependency" data-source-line="24" id="lnk18"><path d="M396.9583,1040.1354 C399.9167,1063.3854 403.4732,1091.4352 406.4211,1114.6539" fill="none" id="Harvesting-to-Season_Complete" style="stroke:#6B7280;stroke-width:3.125;"/><polygon fill="#6B7280" points="407.2083,1120.8541,410.161,1111.029,406.5523,1115.6873,401.8941,1112.0786,407.2083,1120.8541" style="stroke:#6B7280;stroke-width:3.125;"/><text fill="#343A40" font-family="'Verdana'" font-size="12.5" lengthAdjust="spacing" textLength="74.7255" x="403.125" y="1085.4876">Final harvest</text></g><!--link Season_Complete to Dormant--><g class="link" data-entity-1="ent0017" data-entity-2="ent0019" data-link-type="dependency" data-source-line="26" id="lnk20"><path d="M410.3021,1173.3854 C411.4479,1189.125 415.2188,1209.0104 426.0417,1223.1666 C428.6354,1226.5625 464.9871,1244.6969 496.4142,1260.0302" fill="none" id="Season_Complete-to-Dormant" style="stroke:#6B7280;stroke-width:3.125;"/><polygon fill="#6B7280" points="502.0313,1262.7708,495.4327,1254.9152,497.3503,1260.487,491.7786,1262.4047,502.0313,1262.7708" style="stroke:#6B7280;stroke-width:3.125;"/><text fill="#343A40" font-family="'Verdana'" font-size="12.5" lengthAdjust="spacing" textLength="82.0506" x="427.0833" y="1218.8209">End of season</text></g><!--link Dormant to Indoor_Seedling--><g class="link" data-entity-1="ent0019" data-entity-2="ent0005" data-link-type="dependency" data-source-line="28" id="lnk21"><path d="M536.4583,1254.25 C536.4583,1227.8333 536.4583,1185.0833 536.4583,1148.1666 C536.4583,479.4166 536.4583,479.4166 536.4583,479.4166 C536.4583,444.5625 531.3542,434.375 513.5417,404.4166 C506.8333,393.125 501.8451,386.7745 492.6681,377.7641" fill="none" id="Dormant-to-Indoor_Seedling" style="stroke:#6B7280;stroke-width:3.125;"/><polygon fill="#6B7280" points="488.2083,373.3854,491.9788,382.9266,491.9248,377.0343,497.8171,376.9803,488.2083,373.3854" style="stroke:#6B7280;stroke-width:3.125;"/><text fill="#343A40" font-family="'Verdana'" font-size="12.5" lengthAdjust="spacing" textLength="70.9505" x="537.5" y="818.8209">New season</text></g><!--link Dormant to *end*--><g class="link" data-entity-1="ent0019" data-entity-2="ent0022" data-link-type="dependency" data-source-line="29" id="lnk23"><path d="M502.0729,1301.9166 C455.1667,1329.7604 379.1451,1374.9031 351.4055,1391.3718" fill="none" id="Dormant-to-*end*" style="stroke:#6B7280;stroke-width:3.125;"/><polygon fill="#6B7280" points="346.0313,1394.5625,356.2197,1393.3593,350.5098,1391.9036,351.9655,1386.1937,346.0313,1394.5625" style="stroke:#6B7280;stroke-width:3.125;"/><text fill="#343A40" font-family="'Verdana'" font-size="12.5" lengthAdjust="spacing" textLength="93.4632" x="437.5" y="1352.1542">Plant end-of-life</text></g><!--link GMN2 to Seed_Packet_Entered--><g class="link" data-entity-1="ent0003" data-entity-2="ent0003" data-link-type="association" data-source-line="32" id="lnk4"><path d="M537.7917,106.7604 C534.4375,119.9896 528,140.8541 517.7083,156.5 C510.2188,167.8854 499.9896,178.6458 490.1458,187.6458" fill="none" id="GMN2-Seed_Packet_Entered" style="stroke:#6B7280;stroke-width:3.125;stroke-dasharray:7.2917,7.2917;"/></g><!--link Season_Complete to GMN17--><g class="link" data-entity-1="ent0017" data-entity-2="ent0018" data-link-type="association" data-source-line="52" id="lnk19"><path d="M389.1042,1173.3646 C381.9479,1182.6979 374.3542,1193.6354 368.75,1204.4166 C357.9792,1225.1146 350.4896,1251.3958 346.6771,1266.7187" fill="none" id="Season_Complete-GMN17" style="stroke:#6B7280;stroke-width:3.125;stroke-dasharray:7.2917,7.2917;"/></g><?plantuml-src VLJ1ZXCn3BtdAuoueLP2YoYe1wIbkykkj88LousYAftnj54pyP1uMXN4lsFFJ3jjrUujijzxjkENlE8bbWWPnjgZ3IQjNAXij2Kajepmrm1yjjbg4QaE-OGyHNYDM8oAGZCKSunTzEhzw1tE9NeT8sswu6Z-uUhZM_FF67Ri4Pwy3GpVCHCcFBe2isqcuI4yD-Lkd5r8SMD-lla5m-4dU4RCPq_I0FBiDZ16p64CauYAhXgns8WPSmwg4WyX9uepJNiN5aBloYymbYvOTXGW5prZJg47z2yoKylUPtDSewSgxNaxZD9-H1jIqw1qzQrc1GYv3uEm0njp5gWATvus6DkQToucXgA99A1vmhX6cRd7D8nOEpuYQ00IIfbzJe7tLkZf2BfiGyOSvDe5s4HXDg6oyYXthlXWVOy_1IZfXcAf8uxXDkH0XRIW86DsYVDx-OgR7V8Gg5uOTyx1a0-f67fnZZ61f1vJfHNER5-i-11aQEbMrck5ot4hTqBbD2I1GzN0ZMY2IdM2SsAcKZMFrofoigjiDGRNn86nh0RJiAnBbplU3g30oCwxFnWlQvvRjoYtbXn3a2lmb3Mc56tg_91Ha18IIvULzrxe6-rfehKHYsjw01jvFSkNckmzSD2QFX7L-LrByysySl9okAnpueq3CIQMjMmT-doWsr0So0yKWnHzOSZE5_hBhAtpTYwVXysQ4S4oME_RZokDfs48ZxI0Vkn-FGFOBKrHrtbRJ1IaRBKafgJnYOZMdk5U_WbDBlIzxZhx3m00?></g></svg>